<svg xmlns="http://www.w3.org/2000/svg" viewBox="0 0 600 592.61"><defs><style>.cls-1{fill:#74cee2;}</style></defs><title>interpersonalCommsArtboard 46</title><g id="Layer_3" data-name="Layer 3"><path class="cls-1" d="M395.82,208c-2.2-4.61-25.92-56.06-29.77-67-3.23-9.17-10.62-14.81-12.93-16.4,0-.53,0-.82,0-.82s-11.73-4.78-16.46-6c-4.08-1.07-11.07-2.44-13.83-3.45-.69-2-1.91-5.56-2.2-6s-1.44-2.85-2.73-2.12l.23-5.32c4.65-3.35,8-7.49,9.15-10.43.89-2.37,1.78-7.49,2.5-12.45a4.86,4.86,0,0,0,0,.83c.23,1.64,2.11,2.11,4,1.87s1.64-2.57,2.34-5.85,2.11-5.85,2.34-8,.47-8-1.17-9.36c-.78-.67-2,.21-3,1.32.49-1.33,1.17-3.89,1.17-3.89l1.17-1.87v-4l2.34-.94-.23-3L340.32,43l-.47-4.68.47-2.34.47-2.57V29l.23-6.32-2.81-4.44-3.74-4.91-4.91-4.44a36.77,36.77,0,0,0-8.19-5.61A32.62,32.62,0,0,0,311.31.47c-.7,0-4-.47-7-.47s-9.59.94-9.59.94a26.17,26.17,0,0,1-4.21,1.87c-1.17.23-7.25,2.57-7.25,2.57l1.64,2.11L280.2,8.66l-2.11,2.11-3.28,2.34L271.08,15l1.4,3-5.15,3.74s-1.17,4-.7,4.68,2.81,4.68,2.81,5.85-.94,5.38-.94,6.32.7,3.51.94,4.91.7,7.72.7,7.72l.17,3.77c-.95-1.4-2.27-3-3.06-2.13-1.33,1.4-1.14,7.25-1,9.36s1.33,4.68,1.9,8,.38,5.61,1.9,5.85a3.46,3.46,0,0,0,2.26-.33,54.44,54.44,0,0,0,.66,7.58c1.25,5,3.22,11.56,5.72,14.68a16.22,16.22,0,0,0,4.67,3.2l0,3.41c-.77-.13-2.92-.28-3.42,1.91-.62,2.67-1.85,9.86-1.85,9.86l.11.18c-6.07,1.55-28.28,7.29-30.41,9-1.14.72-9.91,6.56-13.51,16.78-3.86,10.95-27.57,62.4-29.77,67a51.14,51.14,0,0,0-3.48,8.16,1.22,1.22,0,0,0-.18.44c-.77,4.32-1.28,7.2,1.28,15.56s4.36,7.2,5.38,10.08,19.26,26.73,20.54,29.61l6.06,5.57c0-.07,0-.12.07-.19l.47.44s2.2,2.3,4.68,5.19,6.06,3.17,6.33,2.3c.07-.23.31-.91.62-1.81-.73,5.27-1.3,9.78-1.44,11.94-.46,7.32,2.61,24.89,2.61,24.89l13,90,5.1,47.83s5.1,67,7,73.15.46,19.7.46,19.7l6,12.38s.29-.34,1.61-.36a19.45,19.45,0,0,1-2.77,4.27c-1.74,1.79-15,11.48-17.4,13.64s-1.74,6.1-1,7.54,7.66,1.79,11.83,1.79,19.14-2.15,20.53-2.87,4.87-6.82,4.87-6.82a50.66,50.66,0,0,0,9.4,1.08c4.52,0,7.66-3.95,7.66-3.95s-.35-11.13-1-14.36a15.28,15.28,0,0,0-3-5.4l.47-.76a43.23,43.23,0,0,1-.93-11.25,114.62,114.62,0,0,0,.93-14.07c0-6.75-3.71-14.63-4.64-20.26s-7.42-76-7.42-83.28.93-41.64.93-41.64l.93-33.76s.92-2.86,1.84-6c1.75,7.76,3.34,14.54,3.72,16.17.93,3.94,1.39,41.64,1.39,48.39s6,30.95,6,37.14.46,61.34.46,67.53,6.5,22.51,7.89,23.63-4.18,9.57-4.64,14.63c-.34,3.71,1.56,9.82,3.15,12.83l.91,11.93s7.66,2.87,8.7,2.15a1.91,1.91,0,0,1,2.09,0l1.74,6.46a29.91,29.91,0,0,0,11.48,3.59c5.92.36,16-1.79,16-1.79a48,48,0,0,0,.7-6.1c0-2.15-6.61-10-9.74-12.56-2.75-2.21-6.84-10.23-7.8-12.14l1.53-.42s1.86-11.25,1.86-13.51-1.86-10.13-1.86-10.13a93.3,93.3,0,0,0,1.39-9.57c0-2.25,1.39-42.2,1.39-42.2s2.78-34.89,2.78-37.7,1.39-21.95.93-27.57-.93-28.7-.93-28.7l.93-70.34a195.26,195.26,0,0,0,.46-22.51,75.24,75.24,0,0,0-1.64-11.7c.53.73,3.9.35,6.27-2.41s4.68-5.19,4.68-5.19L362.8,277c.1.27.21.52.3.8l6.51-5.57c1.38-2.88,21-26.73,22.07-29.61s3-1.73,5.78-10.08c1.74-5.29,2.16-8.38,2-11C400.61,217.25,398,212.5,395.82,208ZM227,228a7.59,7.59,0,0,1-.29-1.32,22.61,22.61,0,0,0,2.06-2.1h0l.34-.4.25-.3.79-1,.24-.31.59-.77.29-.39.64-.89.17-.24.77-1.12.24-.36.55-.85.22-.34.7-1.13.11-.19.55-.94.19-.33.47-.86L236,214q.27-.51.49-1l.11-.23q.17-.37.31-.7l.1-.24c.11-.28.21-.55.29-.79.52-1.62,1-3.08,1.58-4.45a53.8,53.8,0,0,1,3.1-6.5,15.56,15.56,0,0,1,1.19-1.86l.07-.09.22-.29.06-.08.56-.7.21-.26c.23-.29.48-.62.77-1l.13-.18.36-.51.16-.24c.28-.41.6-.88,1-1.43.64-1,1.41-2.21,2.35-3.78l.61-1c1,13.43,1.89,24.76,1.89,26,0,1,0,2.79.07,4.76v25.88c-2.46.52-2.26,3.07-2.2,4.84a15.65,15.65,0,0,0-.75,2.81,40.42,40.42,0,0,0-2.11,5.27,3.19,3.19,0,0,1-.46,1l-7.51-7.09s-3.38-6.65-4.41-7.52-3.54-9.48-4.82-10.92S227.52,229.45,227,228Zm141.27,4.8c-1.38,1.44-4.08,10.06-5.18,10.92s-4.74,7.52-4.74,7.52l-8.07,7.09a3.19,3.19,0,0,1-.46-1,51.44,51.44,0,0,0-2.75-6.63c-.55-1.15,1.1-5.76-2.48-6.34l-2.6-.43,1.54-8.33s.48-4.3,1-9c1.21-5.73,2.86-13.74,3.6-18.1,1-5.78,1.77-13.29,2.41-21.45l.81,1.37c.89,1.5,1.63,2.68,2.26,3.64.36.55.68,1,1,1.45l.32.46.28.4.13.18c.35.48.64.86.91,1.19l.07.09.56.7,0,.06a15.2,15.2,0,0,1,1.5,2.26,53.71,53.71,0,0,1,3.64,7.9q.26.72.52,1.48t.52,1.57h0c.08.24.18.51.29.79l.1.24q.14.34.31.7l.11.23q.23.47.49,1l.12.22.46.85.19.33.54.93.11.19.69,1.12.23.35.55.84.24.37.77,1.12.17.24.64.89.29.39.59.77.24.32.78,1,.25.3.34.4h0c-.45,1.46-.47,2.83-.82,3.74C370.21,228.48,369.65,231.36,368.28,232.8Z"/></g></svg>